<svg width="24" height="26" viewBox="0 0 24 26" fill="none" xmlns="http://www.w3.org/2000/svg">
<path d="M16.7949 25V20.5828C16.8372 20.0385 16.7645 19.4914 16.5817 18.9777C16.3988 18.4641 16.11 17.9957 15.7344 17.6037C19.2769 17.2042 23 15.846 23 9.61392C22.9997 8.02032 22.3938 6.48785 21.3077 5.33366C21.822 3.93945 21.7856 2.39838 21.2062 1.03058C21.2062 1.03058 19.8749 0.631091 16.7949 2.71986C14.209 2.01084 11.4833 2.01084 8.89744 2.71986C5.81744 0.631091 4.48615 1.03058 4.48615 1.03058C3.90668 2.39838 3.87032 3.93945 4.38462 5.33366C3.2904 6.49641 2.68387 8.04274 2.69231 9.64816C2.69231 15.8346 6.41538 17.1928 9.95795 17.638C9.58677 18.026 9.3005 18.4888 9.11778 18.9961C8.93507 19.5035 8.85999 20.0441 8.89744 20.5828V25M8.89744 21.5758C3.25641 23.2879 3.25641 18.7223 1 18.1516L8.89744 21.5758Z" stroke="white" stroke-width="2" stroke-linecap="round" stroke-linejoin="round"/>
</svg>
