<svg width="25" height="25" viewBox="0 0 25 25" fill="none" xmlns="http://www.w3.org/2000/svg">
<path d="M18.1401 1H6.71338C3.55797 1 1 3.55797 1 6.71338V18.1401C1 21.2955 3.55797 23.8535 6.71338 23.8535H18.1401C21.2955 23.8535 23.8535 21.2955 23.8535 18.1401V6.71338C23.8535 3.55797 21.2955 1 18.1401 1Z" stroke="white" stroke-width="2" stroke-linecap="round" stroke-linejoin="round"/>
<path d="M16.9975 11.7069C17.1385 12.6578 16.9761 13.6291 16.5333 14.4824C16.0905 15.3358 15.3899 16.0278 14.5312 16.46C13.6724 16.8922 12.6993 17.0427 11.7501 16.89C10.8009 16.7372 9.92405 16.2891 9.24425 15.6093C8.56445 14.9295 8.11631 14.0526 7.96357 13.1035C7.81084 12.1543 7.96128 11.1811 8.39351 10.3224C8.82574 9.46362 9.51775 8.76303 10.3711 8.32025C11.2244 7.87746 12.1957 7.71503 13.1467 7.85605C14.1167 7.99989 15.0148 8.45191 15.7082 9.14533C16.4016 9.83876 16.8536 10.7368 16.9975 11.7069Z" stroke="white" stroke-width="2" stroke-linecap="round" stroke-linejoin="round"/>
<path d="M18.7115 6.14204H18.7224" stroke="white" stroke-width="2" stroke-linecap="round" stroke-linejoin="round"/>
</svg>
