<svg width="26" height="24" viewBox="0 0 26 24" fill="none" xmlns="http://www.w3.org/2000/svg">
<path d="M17.2726 8.14139C19.091 8.14139 20.8348 8.86372 22.1206 10.1495C23.4063 11.4352 24.1287 13.1791 24.1287 14.9974V22.9962H19.558V14.9974C19.558 14.3913 19.3172 13.81 18.8886 13.3815C18.46 12.9529 17.8787 12.7121 17.2726 12.7121C16.6665 12.7121 16.0852 12.9529 15.6566 13.3815C15.228 13.81 14.9873 14.3913 14.9873 14.9974V22.9962H10.4166V14.9974C10.4166 13.1791 11.1389 11.4352 12.4247 10.1495C13.7104 8.86372 15.4543 8.14139 17.2726 8.14139V8.14139Z" stroke="white" stroke-width="2" stroke-linecap="round" stroke-linejoin="round"/>
<path d="M5.84585 9.28407H1.27515V22.9962H5.84585V9.28407Z" stroke="white" stroke-width="2" stroke-linecap="round" stroke-linejoin="round"/>
<path d="M3.5605 5.85604C4.82266 5.85604 5.84585 4.83285 5.84585 3.57069C5.84585 2.30853 4.82266 1.28534 3.5605 1.28534C2.29833 1.28534 1.27515 2.30853 1.27515 3.57069C1.27515 4.83285 2.29833 5.85604 3.5605 5.85604Z" stroke="white" stroke-width="2" stroke-linecap="round" stroke-linejoin="round"/>
</svg>
